HIERARCHY
ROOT Hips
{
	OFFSET -3.958830 18.904000 13.208200
	CHANNELS 6 Xposition Yposition Zposition Zrotation Yrotation Xrotation 
	JOINT LHipJoint
	{
		OFFSET 0.000000 0.000000 0.000000
		CHANNELS 3 Zrotation Yrotation Xrotation
		JOINT LeftUpLeg
		{
			OFFSET 1.800000 -1.400000 0.085000
			CHANNELS 3 Zrotation Yrotation Xrotation
			JOINT LeftLeg
			{
				OFFSET 2.215000 -6.000000 0.000000
				CHANNELS 3 Zrotation Yrotation Xrotation
				JOINT LeftFoot
				{
					OFFSET 2.500000 -6.900000 0.000000
					CHANNELS 3 Zrotation Yrotation Xrotation
					JOINT LeftToeBase
					{
						OFFSET 0.200000 -0.500000 1.950000
						CHANNELS 3 Zrotation Yrotation Xrotation
						End Site
						{
							OFFSET 0.000000 0.000000 0.000000
						}
					}
				}
			}
		}
	}
	JOINT RHipJoint
	{
		OFFSET 0.000000 0.000000 0.000000
		CHANNELS 3 Zrotation Yrotation Xrotation
		JOINT RightUpLeg
		{
			OFFSET -1.800000 -1.400000 0.085000
			CHANNELS 3 Zrotation Yrotation Xrotation
			JOINT RightLeg
			{
				OFFSET -2.215000 -6.000000 0.000000
				CHANNELS 3 Zrotation Yrotation Xrotation
				JOINT RightFoot
				{
					OFFSET -2.500000 -6.900000 0.000000
					CHANNELS 3 Zrotation Yrotation Xrotation
					JOINT RightToeBase
					{
						OFFSET -0.200000 -0.500000 1.950000
						CHANNELS 3 Zrotation Yrotation Xrotation
						End Site
						{
							OFFSET 0.000000 0.000000 0.000000
						}
					}
				}
			}
		}
	}
	JOINT LowerBack
	{
		OFFSET 0.000000 0.000000 0.000000
		CHANNELS 3 Zrotation Yrotation Xrotation
		JOINT Spine
		{
			OFFSET -0.087000 1.940000 -0.288900
			CHANNELS 3 Zrotation Yrotation Xrotation
			JOINT Spine1
			{
				OFFSET 0.000000 1.950000 0.060000
				CHANNELS 3 Zrotation Yrotation Xrotation
				JOINT Neck
				{
					OFFSET 0.000000 0.000000 0.000000
					CHANNELS 3 Zrotation Yrotation Xrotation
					JOINT Neck1
					{
						OFFSET 0.000000 1.600000 0.340000
						CHANNELS 3 Zrotation Yrotation Xrotation
						JOINT Head
						{
							OFFSET 0.000000 1.667000 -0.240000
							CHANNELS 3 Zrotation Yrotation Xrotation
							End Site
							{
								OFFSET 0.000000 0.000000 0.000000
							}
						}
					}
				}
				JOINT LeftShoulder
				{
					OFFSET 0.000000 0.000000 0.000000
					CHANNELS 3 Zrotation Yrotation Xrotation
					JOINT LeftArm
					{
						OFFSET 2.700000 1.550000 -0.730000
						CHANNELS 3 Zrotation Yrotation Xrotation
						JOINT LeftForeArm
						{
							OFFSET 5.450000 0.000000 0.000000
							CHANNELS 3 Zrotation Yrotation Xrotation
							JOINT LeftHand
							{
								OFFSET 3.450000 0.000000 0.000000
								CHANNELS 3 Zrotation Yrotation Xrotation
								JOINT LeftHandIndex1
								{
									OFFSET 0.750000 0.000000 0.000000
									CHANNELS 3 Zrotation Yrotation Xrotation
									End Site
									{
										OFFSET 0.000000 0.000000 0.000000
									}
								}
							}
						}
					}
				}
				JOINT RightShoulder
				{
					OFFSET 0.000000 0.000000 0.000000
					CHANNELS 3 Zrotation Yrotation Xrotation
					JOINT RightArm
					{
						OFFSET -2.700000 1.550000 -0.730000
						CHANNELS 3 Zrotation Yrotation Xrotation
						JOINT RightForeArm
						{
							OFFSET -5.450000 0.000000 0.000000
							CHANNELS 3 Zrotation Yrotation Xrotation
							JOINT RightHand
							{
								OFFSET -3.450000 0.000000 0.000000
								CHANNELS 3 Zrotation Yrotation Xrotation
								JOINT RightHandIndex1
								{
									OFFSET -0.750000 0.000000 0.000000
									CHANNELS 3 Zrotation Yrotation Xrotation
									End Site
									{
										OFFSET 0.000000 0.000000 0.000000
									}
								}
							}
						}
					}
				}
			}
		}
	}
}
MOTION
Frames: 14
Frame Time: 0.016667
5.874960 16.011950 4.792480 -132.934323 8.973408 -122.170319 -16.198064 13.368392 3.867682 6.147410 -12.485550 -12.134900 58.874124 -1.812924 -3.505242 0.905875 6.329149 2.282094 0.051000 -0.066330 0.409920 17.554272 -7.249845 3.757998 -9.550157 5.384741 -33.083821 29.592627 -5.193681 6.872876 -0.361411 -3.220843 3.086397 -0.181590 -0.248960 0.075500 -1.140854 -7.579151 -8.775880 -39.972516 17.571608 40.742982 14.538957 3.320535 16.802220 1.403247 2.896944 -17.476921 2.586935 12.035683 46.386595 -5.721620 21.740890 -14.573140 0.068644 -19.222161 7.632670 -0.489262 -3.715147 -8.884542 33.689321 -18.536844 -5.826658 -3.865510 3.009912 0.515890 -0.139210 0.305950 -0.184690 -3.565739 19.074862 14.074061 4.720784 -12.303091 -8.565590 -34.310503 13.446142 -3.759591 2.625483 -1.403580 -0.078370 -0.026870 0.011820 -0.307480 
6.142380 15.874720 4.832200 -121.362196 8.973207 -129.325616 -16.432036 13.846678 4.051226 -2.235939 -13.798937 -15.974614 69.595188 -17.806654 27.797089 1.752879 10.642508 0.943146 0.040180 -0.073980 0.356070 17.447750 -7.183051 3.405919 3.619834 7.131662 -25.380627 27.560254 -7.219532 12.626956 -0.334039 -3.357817 3.100298 -0.089230 -0.152020 0.079500 -0.636315 -8.637227 -8.430422 -37.736082 15.399811 37.211547 14.184228 8.394637 22.457980 2.696642 0.192328 -14.911742 -2.053350 12.950792 42.645119 -8.642210 22.014030 -12.998290 4.681581 -11.080293 6.293078 -20.079251 -6.110230 -10.627208 91.998806 -67.789642 -70.172015 -3.351522 1.022116 0.432810 -0.024020 0.191910 -0.175270 -11.330910 15.291612 14.271288 9.328009 -8.077996 -5.995680 -26.470840 6.609955 -1.463423 2.697803 -1.391150 -0.144650 0.002510 0.060890 -0.316880 
6.393180 15.637190 4.957480 -107.470596 7.663155 -129.251168 -16.619954 13.314987 4.174413 4.712987 -15.051264 -27.761153 63.802180 -23.008219 42.230753 1.996771 12.577438 0.332775 0.129060 0.051170 0.391920 17.465562 -6.392475 3.827779 17.918671 9.254636 -22.363985 31.803609 -8.857402 13.666202 -0.554975 -3.957214 2.884775 0.041310 -0.134990 0.120110 -0.373687 -8.938742 -8.718169 -26.663379 7.878799 32.843884 11.077773 8.382482 25.872583 3.996766 -3.491290 -14.149281 -11.247300 12.763223 39.995007 -12.572840 20.377300 -13.473460 12.397946 -6.537844 11.936950 -42.125120 -19.279355 16.879591 -177.840902 -34.823670 156.583221 -3.885959 3.395167 0.347860 0.054470 0.155520 -0.166140 -21.882672 10.894356 8.548058 7.497187 6.973853 -7.435565 -11.703867 -22.806424 1.989361 3.646048 -0.843499 -0.128150 0.003820 0.052870 -0.313490 
6.643500 15.539650 4.702810 -74.692366 19.746200 -117.345591 -16.802158 14.356895 2.140809 16.846118 -7.190769 -21.741246 32.163350 -7.068722 55.865346 2.336466 10.392006 1.197929 -1.358720 -1.785470 -0.374840 17.278541 -6.399683 5.038902 37.108024 8.215545 -11.088163 12.152637 -7.916586 30.973070 -0.427302 -4.904365 2.707637 -1.462980 0.269840 0.308030 0.112418 -9.168613 -8.083158 -29.515220 29.859987 35.724552 13.915524 20.713281 -38.289052 3.006018 14.733394 -12.220257 40.077311 13.311926 41.144873 4.630560 31.806730 35.249280 20.168901 -0.441152 10.882050 -171.816745 23.776974 -168.623377 46.230408 31.031267 21.111247 -5.541535 2.631141 0.062280 0.316450 -0.069220 -0.383790 -21.051054 5.091593 0.354401 21.145901 32.349783 -13.515064 -57.591278 -38.924458 21.480268 4.246626 -1.425606 -0.073950 -0.684520 0.407570 -0.103810 
6.450900 15.621190 5.066800 -7.412415 59.014527 -88.547434 -15.209053 12.779809 3.328158 -2.088649 0.416841 20.899080 -11.925133 16.292820 41.933326 1.843727 11.013086 1.090069 -0.734350 -0.594250 0.057400 18.565384 -10.092559 3.024781 9.748153 -1.952392 18.494990 -21.030275 0.325158 38.308138 -1.135808 -7.959007 1.470048 -0.285910 0.554610 0.572770 -4.002533 0.517126 -6.748623 -48.411675 32.395875 -4.433803 20.766243 48.216928 32.344403 -3.749483 14.420198 -1.298165 33.049249 21.263744 31.607670 -33.379720 57.550450 -22.508220 44.270511 -29.128141 -6.175406 146.404058 -11.812410 -108.189032 2.330970 17.718997 -1.002861 -0.995521 5.438998 -0.370370 0.966220 -0.137790 -0.376920 -25.027018 44.878264 -1.338143 -0.563293 14.809796 -15.114526 -158.944338 -63.266299 -140.267354 -0.077070 -0.019991 -0.225960 -0.334640 0.375520 -0.232670 
6.809710 15.425160 4.864330 -37.333371 39.300862 -108.017567 -17.627766 14.125731 3.625093 44.730933 -1.369160 1.266880 -13.490100 27.199588 45.582859 2.310553 13.057083 0.499686 -1.071540 -1.278910 -0.633700 16.615781 -5.731235 3.603491 24.501633 4.176776 2.942382 9.761411 -12.636532 47.851046 -1.119374 -8.595979 1.657254 -0.877330 0.787240 0.265180 0.705556 -13.781350 -8.294151 -51.466216 44.246517 20.014156 8.631398 56.923891 -40.890360 0.053383 11.406082 -12.119951 23.168634 26.858949 27.550482 7.138710 39.052450 26.744760 40.653200 9.696099 -2.911167 100.891549 57.360119 50.613301 36.568425 -10.231123 4.893879 -9.512726 1.584504 -0.151220 0.629830 -0.397250 -0.116500 -28.810009 2.114386 3.518258 24.289514 22.329358 -20.444163 -125.295999 -14.967888 15.007397 3.147874 -2.551526 -0.266150 -0.267590 0.498620 0.008660 
6.904060 15.240570 4.901110 -49.393413 41.056940 -115.949765 -18.190275 14.070965 5.633437 49.780677 -0.325736 -13.556957 -15.468735 33.448276 58.523480 2.649727 14.627953 -0.029468 -0.811610 -0.890130 -0.700960 16.124236 -5.127654 3.026978 9.740909 8.001918 -8.215269 23.054843 -22.829426 53.351103 -1.696059 -10.591187 1.166998 -0.654460 0.713540 -0.007920 0.977609 -14.816231 -9.614125 -33.877926 38.398672 42.780453 13.074871 50.912685 -24.311931 1.397494 -0.174161 -11.921787 -3.809793 36.623358 23.345528 12.168070 34.350120 23.279180 38.149633 35.126651 24.954359 1.370675 70.125196 13.998746 22.615367 10.234335 2.458573 -7.508868 0.704483 0.039530 0.347270 -0.312580 0.032760 -27.804282 -11.072050 8.043578 8.617745 -13.567589 -11.394639 -141.072754 11.221519 -35.957761 2.840798 -2.439005 -0.300080 0.025540 0.407490 0.088070 
7.084050 15.111560 4.710600 -42.387030 33.622892 -108.465064 -18.341747 14.801735 6.196296 58.001565 2.148485 -16.513675 -13.534464 30.330560 51.930624 2.436340 13.888925 0.251132 -0.990060 -1.053120 -1.048610 16.228250 -3.668505 2.987475 12.609793 9.014214 -17.452517 10.194228 -18.169099 62.739124 -1.470198 -10.752503 1.142490 -0.713430 0.982030 -0.044520 1.628400 -17.128706 -10.648469 -16.056426 34.927359 41.862159 28.865696 44.244380 -15.118625 5.402617 0.078303 -7.515211 -12.745091 30.545302 17.569232 13.035220 20.493210 31.711520 70.153878 2.742773 -13.764440 61.476558 50.514466 160.587398 -0.138026 19.409484 1.570697 -7.124458 -3.487800 -0.205650 0.473880 -0.539220 0.134450 -39.617423 3.175965 5.447204 7.425768 -39.857067 -12.690626 -132.070131 18.242121 -46.262664 2.622942 -3.137603 -0.304850 0.065590 0.495550 0.280920 
7.290700 14.454240 4.445400 167.826419 -32.604393 -85.633160 -16.274822 11.537419 4.637820 -70.893875 -6.498101 -14.195698 11.239930 7.079226 -60.645993 1.783675 5.758818 3.117161 -1.787520 -1.960100 -1.779410 18.109942 -4.467289 6.329001 0.473062 10.718853 17.179465 -2.884664 3.627356 -70.359078 -0.075343 -4.760748 3.154764 -1.278320 1.500730 0.050120 -1.725921 -10.054237 -10.568424 18.395705 -24.996356 -11.621793 4.733121 -8.230615 -23.732768 13.910601 -7.977726 -23.758712 -18.576637 -0.715405 17.328724 1.411420 -3.484020 52.420450 27.692619 9.884142 8.830877 -9.169562 20.511707 -7.754579 -15.397076 25.806524 -5.771780 -4.693572 2.464581 -0.667170 0.838380 -0.924260 0.151870 -45.273900 -5.591479 19.911814 75.621751 -89.887266 -108.518917 -146.980341 40.754167 -66.410497 3.548650 -0.745926 -0.307320 -0.024120 0.829690 0.613770 
7.194450 15.028330 4.498790 -143.301141 -38.523109 -147.006248 -14.252401 7.875851 4.368508 -30.653438 -6.934186 -20.191924 55.339770 14.178324 -24.597143 2.917626 7.991501 2.421897 -1.411650 -1.634450 -0.892050 20.015202 -8.697663 5.777258 -6.401025 5.444172 25.507802 41.088124 9.980417 -38.913544 -0.779968 -7.158387 1.722240 -1.295230 0.948510 1.002520 -6.224672 4.435281 -10.095039 39.005747 4.931565 4.603271 2.937084 -4.589212 28.484406 2.526343 0.217400 -26.581788 3.233656 -14.301234 34.542844 -25.426260 7.746510 48.815000 22.453489 -30.194396 16.616151 -32.531439 9.272658 -6.102753 -18.049641 23.352636 -4.503965 -5.288187 2.465543 -1.246060 1.030260 -0.481770 -0.045220 -26.482920 34.138382 16.384279 23.210854 15.882438 -28.410911 -118.269839 -20.263273 5.775104 4.016767 -3.065699 0.474350 -0.941190 0.452900 0.659190 
7.223830 14.944060 4.411870 -137.054533 -29.238995 -148.598891 -14.585261 8.644364 4.233892 -28.488739 -6.924019 -24.439207 60.884315 11.336556 -16.329972 3.591996 7.795361 2.486941 -1.560980 -1.704640 -0.926940 19.562942 -7.585988 6.318068 -16.678914 9.974726 18.075347 47.163208 9.419273 -31.759671 -1.092871 -7.295275 1.198443 -1.701180 0.835040 1.474450 -5.646270 1.316797 -10.535278 38.310939 2.795758 6.977778 1.286583 0.583659 26.013591 4.415825 -10.275288 -30.597247 -20.788337 -12.965840 43.218253 -32.530070 8.362930 57.355530 6.016857 -27.986357 17.751634 -29.242462 12.317709 -4.855684 6.834906 23.887184 2.896723 -5.466798 3.475979 -1.253850 0.804320 0.073200 -0.002310 -9.649579 39.238124 17.598061 7.790140 2.890623 -23.301930 -89.133090 -12.305053 -2.451526 5.158152 -3.182564 0.919430 -1.273030 0.358310 1.079660 
7.230930 14.609380 4.501590 -127.255602 -27.676763 -138.986483 -16.118463 10.466712 4.830338 -23.585707 -16.587296 -40.544187 67.620432 8.059116 -15.824601 1.763873 7.638895 2.064327 -0.637210 -0.194260 -0.564930 18.179398 -4.046261 6.135327 -16.708295 12.001762 10.571625 46.007787 14.636357 -38.286411 -1.957120 -5.530084 1.456852 -0.704630 0.700130 1.229900 -1.891458 -7.279674 -11.190138 33.449760 4.001439 18.613099 3.821681 15.548658 -15.102899 9.849060 -11.046133 -16.804709 -22.322385 12.585117 22.411209 -14.329090 11.577150 -39.685890 8.553648 2.675554 5.449499 -26.704150 -2.369247 0.517114 2.470323 13.627820 -0.410301 -4.338495 2.376324 0.612810 -0.040830 1.133210 0.091370 -20.428280 14.976377 9.167957 6.281873 6.796543 -5.694658 -36.889602 -3.860456 2.366119 3.813153 -0.993747 0.350470 0.164360 0.492120 0.876090 
7.248000 14.652290 4.375270 -124.250231 -24.485326 -140.638697 -15.589248 9.319349 4.373855 -21.635487 -14.201203 -36.516136 68.931554 8.044231 -14.356317 1.311779 7.289723 1.832285 0.594860 1.063210 0.585030 18.769646 -4.662745 6.504359 -20.464333 11.834104 8.390771 46.326243 15.579417 -39.180148 -2.314551 -5.145565 1.511898 0.084230 -0.093470 1.004060 -3.160050 -3.720945 -10.214554 27.381246 5.029204 12.558956 8.739144 10.956677 -9.162184 0.665471 -11.344506 -11.378179 -22.220037 22.423679 1.263005 -6.409160 19.938010 -76.738860 17.059213 4.732849 4.278075 -39.209521 -13.768623 4.944725 -11.203202 31.303067 -4.226301 -3.730243 2.111554 1.005090 -0.562030 1.502580 0.067240 -13.697771 6.992342 5.254053 2.438545 10.970258 -3.125125 -30.881184 -10.389296 3.379627 3.643935 -0.954193 0.483760 0.215520 -0.123610 0.457520 
7.376600 14.591330 4.063220 -125.602820 -22.699372 -134.636059 -15.191610 7.991513 4.239939 -25.594032 -15.237148 -35.567867 67.776832 14.104886 -22.471718 1.415829 7.742933 1.702675 1.033760 1.661520 0.514540 19.312302 -4.455309 7.657080 -25.476868 14.725110 9.002847 36.271516 20.916030 -53.982627 -2.123550 -4.539371 1.702454 0.614960 0.186380 0.876450 -4.284974 -0.719464 -10.338872 21.489594 3.267316 1.249401 5.612117 8.290991 -15.262426 -7.931361 -7.209154 -11.226320 -14.776386 25.666875 -1.931482 23.933790 21.120230 -60.452330 35.556525 6.157889 2.413714 -66.348407 -0.035185 -11.663285 92.166162 41.400061 47.075460 -4.555009 2.722721 0.743130 -0.487940 1.328700 0.367470 -18.166984 4.402853 4.345340 27.036030 13.205968 -5.496236 -52.392675 -22.024301 11.471499 3.686348 -1.591252 0.504310 0.415040 -0.337410 0.712550 
